<svg xmlns="http://www.w3.org/2000/svg" xmlns:xlink="http://www.w3.org/1999/xlink" version="1.1" x="0px" y="0px"
  viewBox="0 0 100 125" enable-background="new 0 0 100 100" xml:space="preserve">
  <rect width="100" height="125" fill="white" />
  <path
    d="M83.651,38.651C83.651,20.096,68.556,5,50,5C31.445,5,16.349,20.096,16.349,38.651c0,14.591,9.245,27.353,23.044,31.928  l-0.005,0.014c4.185,1.488,5.153,7.1,5.566,9.495l0.037,0.212c0.294,1.691,1.538,2.951,3.025,3.062  c1.527,0.123,2.815-0.978,3.461-2.917c0.306-0.915,0.548-1.904,0.781-2.861c0.241-0.985,0.589-2.403,0.898-2.979  c0.054,0.054,0.117,0.125,0.191,0.219c0.798,0.996,0.854,4.391,0.899,7.117c0.071,4.215,0.127,7.543,2.09,8.237  c0.246,0.086,0.47,0.12,0.668,0.12c0.436,0,0.754-0.162,0.933-0.286c1.097-0.76,1.136-2.656,1.2-5.799  c0.021-1.06,0.046-2.261,0.118-3.497c0.133-2.26,0.423-7.172,0.961-8.903c0.276,0.55,0.639,1.448,0.926,2.158  c1.236,3.062,2.312,5.699,4.153,5.361c1.392-0.261,1.707-2.14,2.229-5.252c0.518-3.089,1.227-7.317,3.112-8.851l-0.007-0.009  C78.908,58.794,83.651,49.154,83.651,38.651z M68.905,64.038L68.905,64.038c-2.124,2.159-2.788,6.343-3.353,9.712  c-0.193,1.151-0.443,2.646-0.696,3.37c-0.594-0.764-1.426-2.826-1.858-3.897c-0.776-1.922-1.208-2.946-1.787-3.406  c-0.725-0.575-1.361-0.426-1.677-0.285c-1.339,0.599-1.785,2.771-2.273,11.068c-0.075,1.274-0.1,2.496-0.122,3.573  c-0.029,1.459-0.065,3.223-0.271,3.96c-0.53-0.87-0.588-4.308-0.62-6.225c-0.059-3.499-0.113-6.804-1.337-8.334  c-0.701-0.875-1.435-1.236-2.168-1.074c-1.373,0.304-1.815,2.109-2.427,4.608c-0.224,0.918-0.457,1.866-0.736,2.704  c-0.338,1.015-0.865,1.584-1.415,1.556c-0.471-0.035-1.053-0.542-1.204-1.411l-0.037-0.209c-0.461-2.672-1.536-8.827-6.488-10.878  l0,0c-13.218-4.179-22.088-16.343-22.088-30.219C18.349,21.199,32.548,7,50,7s31.651,14.199,31.651,31.651  C81.651,48.742,77.006,57.996,68.905,64.038z" />
  <path
    d="M48.951,87.152l-0.595-0.428l-0.587,0.439c-0.135,0.102-3.297,2.51-2.402,5.445C45.79,93.999,47.123,95,48.545,95  c0.01,0,0.02,0,0.029,0c1.324-0.013,2.397-0.902,2.8-2.322C52.256,89.568,49.086,87.25,48.951,87.152z M49.45,92.133  c-0.162,0.571-0.463,0.863-0.895,0.867c-0.003,0-0.006,0-0.009,0c-0.479,0-1.08-0.362-1.266-0.974  c-0.312-1.023,0.495-2.095,1.099-2.72C48.979,89.92,49.773,90.99,49.45,92.133z" />
  <polygon points="49.091,37.26 36.655,44.315 37.642,46.054 50.909,38.529 55.539,10.485 53.566,10.159 " /><text x="0"
    y="115" fill="#000000" font-size="5px" font-weight="bold"
    font-family="'Helvetica Neue', Helvetica, Arial-Unicode, Arial, Sans-serif">Created by emilegraphics</text><text
    x="0" y="120" fill="#000000" font-size="5px" font-weight="bold"
    font-family="'Helvetica Neue', Helvetica, Arial-Unicode, Arial, Sans-serif">from the Noun Project</text>
</svg>